PathFileType	4	(X/Y/Z)	C:/Users/beibeiliu/ov580/test_trc\sequence.39_training_dense_right.trc
DataRate	CameraRate	NumFrames	NumMarkers	Units	OrigDataRate	OrigDataStartFrame	OrigNumFrames
120	120	20	19	mm	120	101	400
Frame#	Time	ThumbCMC			ThumbMCP			ThumbIP			ThumbTip			IndexMCP			IndexPIP			IndexTip			MiddleMCP			MiddlePIP			MiddleTip			RingMCP			RingPIP			RingTip			PinkyMCP			PinkyPIP			PinkyTip			BackHand1			BackHand2			BackHand3	
		X0	Y0	Z0	X1	Y1	Z1	X2	Y2	Z2	X3	Y3	Z3	X4	Y4	Z4	X5	Y5	Z5	X6	Y6	Z6	X7	Y7	Z7	X8	Y8	Z8	X9	Y9	Z9	X10	Y10	Z10	X11	Y11	Z11	X12	Y12	Z12	X13	Y13	Z13	X14	Y14	Z14	X15	Y15	Z15	X16	Y16	Z16	X17	Y17	Z17	X18	Y18	Z18	
100	0.833333	189.797	-24.7449	61.6941	178.468	-33.1251	37.1726	175.594	-35.7549	14.8729	178.984	-35.7981	-7.88692	204.676	-28.7733	-2.83068	202.927	-58.2182	-3.42214	203.62	-63.2682	23.8797	221.856	-35.8272	-2.08475	220.094	-64.9613	5.02057	213.721	-61.7332	34.4123	238.124	-39.7722	5.86493	228.679	-64.9353	16.5968	222.584	-54.4985	44.5281	252.011	-39.9636	16.4314	239.348	-60.9658	21.2379	230.152	-54.4751	46.0239	235.529	-7.15177	42.8084	237.646	-4.54803	69.708	210.834	-1.33067	53.4524	
101	0.841667	187.125	-22.0213	58.7523	181.304	-29.6511	35.407	173.469	-30.189	11.3709	171.072	-33.8874	-4.69456	200.241	-28.1572	-4.55255	199.933	-55.1456	-4.36371	200.995	-59.6614	27.1985	220.907	-35.9358	-3.44121	216.071	-62.2503	2.70989	210.232	-57.8256	36.5867	233.578	-39.7411	4.85948	226.473	-63.3606	16.4387	219.479	-54.5132	42.5422	248.994	-39.1792	17.8161	236.721	-60.7975	24.056	226.452	-53.4915	46.5761	237.823	-7.74929	46.2971	234.134	-6.40977	71.9841	212.861	-1.31426	53.8537	
102	0.85	189.894	-21.5759	60.5521	177.699	-28.242	37.1069	171.682	-28.227	11.9407	172.048	-31.902	-3.45212	202.421	-24.6339	-2.43926	201.553	-53.0507	-5.06478	199.778	-58.6547	25.654	221.008	-32.8304	-2.22418	216.144	-63.0953	4.64887	211.987	-55.4132	38.2463	236.039	-38.473	6.87956	225.184	-62.4771	15.0269	218.356	-55.1608	41.8499	247.735	-42.5891	15.8991	236.315	-61.2429	24.0426	227.104	-53.8986	46.3391	236.959	-6.33738	41.6345	235.984	-5.41979	73.5752	213.548	-1.00615	55.0705	
103	0.858333	185.875	-20.2115	62.4091	177.888	-26.1363	37.7804	174.252	-25.8639	14.7295	171.22	-26.8275	-8.41754	204.21	-25.4843	-3.81984	197.714	-53.1606	-2.78877	194.372	-55.5954	26.9477	222.055	-32.81	-1.1535	211.797	-61.0208	4.6583	206.69	-56.1662	34.6205	232.993	-39.8001	4.92173	224.958	-61.7214	14.7776	218.813	-54.872	41.5598	248.462	-44.0245	15.587	234.276	-61.039	22.0404	223.81	-53.7175	45.6992	239.36	-6.63752	43.4159	234.466	-5.00593	72.7318	209.105	0.564529	55.7872	
104	0.866667	189.693	-21.7746	62.9506	174.186	-24.6776	35.9094	175.05	-24.4658	13.0688	173.652	-26.8618	-5.66467	198.57	-22.2861	-3.05715	194.707	-52.8234	-3.97977	196.619	-56.1749	25.2316	215.669	-33.0048	-4.05162	212.577	-61.2968	3.53265	208.643	-56.7493	35.2072	233.554	-40.4493	5.13608	219.56	-62.2789	15.8622	219.458	-53.5703	43.0947	247.742	-41.9499	15.9487	233.522	-62.3579	23.3116	221.562	-49.6138	47.1775	237.894	-6.97631	46.7669	235.407	-8.1228	74.19	213.169	-2.78882	57.045	
105	0.875	187.721	-20.3955	60.7621	174.373	-25.9864	34.8531	172.627	-25.7002	9.74202	175.438	-27.7307	-10.2541	198.979	-24.2294	-4.8965	194.897	-51.1248	-5.44525	193.887	-57.8638	22.2727	216.97	-33.5467	-3.14105	211.837	-60.3942	1.27361	206.319	-56.3897	34.5868	229.581	-42.1937	3.75631	217.504	-62.0206	16.4332	214.438	-54.6266	40.6795	245.978	-43.241	15.3422	228.948	-61.6104	24.346	221.832	-51.197	45.2364	237.093	-8.38222	43.1287	232.631	-7.11793	71.9657	209.381	-2.29018	53.3815	
106	0.883333	183.396	-20.5143	60.2738	173.451	-26.8084	34.4543	174.637	-27.0341	8.59189	177.255	-31.4124	-8.5169	202.557	-24.8271	-4.45382	198.971	-50.0836	-7.35274	195.322	-58.536	23.1872	219.44	-35.4789	-3.25545	211.607	-62.7861	3.94687	205.798	-54.5073	37.273	230.215	-41.6327	3.6925	219.381	-62.05	14.5345	212.988	-54.243	39.2197	248.009	-43.6836	16.9557	231.416	-63.629	26.7009	224.281	-54.3887	46.3897	241.296	-8.20317	43.1725	236.834	-8.5592	72.8532	211.027	-1.23408	52.2801	
107	0.891667	184.059	-21.8465	60.0533	178.526	-28.5164	32.7574	177.313	-29.1471	7.34678	177.815	-33.8076	-12.3444	200.865	-22.6464	-5.31116	194.241	-51.8188	-7.34467	193.454	-57.0476	24.3344	217.499	-35.2194	-5.2687	209.569	-61.334	2.47877	208.349	-58.3741	33.8973	230.767	-40.9728	4.68458	221.307	-64.9715	17.4935	213.535	-54.2232	39.4778	246.705	-46.6862	15.7218	231.94	-63.5371	22.2719	219.84	-51.5558	44.9754	240.589	-9.91915	43.7572	233.72	-7.65416	69.4627	210.649	-1.92523	54.4176	
108	0.9	187.145	-22.2671	60.4742	175.415	-28.1534	30.7725	172.439	-31.4299	7.78694	179.919	-35.6704	-12.1788	201.948	-21.1807	-4.12454	196.327	-52.1517	-6.65451	192.159	-56.3457	23.2188	217.41	-29.7659	-2.09085	213.63	-61.4522	0.842695	205.024	-57.2938	32.205	231.171	-42.7374	3.11266	221.862	-64.8231	15.272	215.69	-54.8709	42.3491	244.889	-47.6973	14.39	230.71	-62.0464	21.0236	220.334	-53.4229	46.0073	240.498	-11.047	45.217	231.913	-7.31653	70.1972	211.046	-0.306552	54.6144	
109	0.908333	184.561	-20.4105	60.3004	175.884	-27.5206	34.8231	174.723	-30.2363	7.09546	181.266	-35.5429	-12.1276	200.131	-18.698	-2.7326	195.896	-46.7822	-9.42621	192.233	-56.034	22.8387	220.154	-33.3941	-4.68229	208.506	-58.5576	-0.963211	206.626	-58.5109	31.2904	234.525	-41.596	3.97903	223.227	-63.4307	11.0705	214.672	-56.988	38.2981	244.317	-43.9697	13.68	229.674	-62.8977	21.853	219.813	-51.9343	42.4346	238.862	-10.6507	45.4682	235.764	-8.41214	71.7476	211.83	-3.42887	56.6123	
110	0.916667	184.592	-17.9557	57.6174	174.77	-26.7715	33.0533	170.995	-29.0665	10.2419	178.762	-34.7275	-14.0318	205.276	-18.4089	-2.00541	197.39	-47.6046	-7.53563	189.782	-54.6022	20.0989	217.686	-27.3364	-3.63341	210.258	-59.4024	0.153339	204.986	-56.7341	30.9044	234.564	-37.779	4.86794	217.324	-61.6082	10.1758	212.159	-57.3474	33.3187	246.344	-43.9502	13.7732	229.071	-60.4407	17.3307	219.549	-56.1299	42.5463	240.33	-11.6239	47.7208	233.977	-11.4971	74.9758	212.431	-0.409314	55.0999	
111	0.925	188.204	-17.7599	58.3704	176.255	-24.7535	34.7083	171.971	-26.4885	11.7071	180.513	-33.3637	-10.8875	205.442	-16.9989	-3.87492	196.953	-45.2158	-9.79707	189.354	-51.6399	18.4036	221.451	-26.9693	-4.34393	209.741	-54.6133	-6.45935	203.477	-54.5079	28.9637	236.298	-37.7062	3.45909	219.639	-58.9008	6.49405	212.569	-56.168	34.0875	246.472	-40.7479	15.9169	231.113	-60.5039	15.4928	219.746	-58.3264	37.0535	237.374	-9.12028	44.2343	237.473	-10.6001	73.1878	212.393	0.277145	59.0101	
112	0.933333	187.697	-14.7157	58.7991	178.636	-20.3948	32.8773	174.432	-23.7577	11.4592	182.909	-32.6453	-11.7482	203.814	-14.8764	-3.44589	198.628	-43.5906	-10.6247	191.756	-51.8223	13.4795	218.898	-27.0768	-7.7124	213.398	-53.5133	-9.03203	201.493	-55.97	23.4137	234.248	-35.1958	0.534296	220.132	-59.216	4.12669	213.346	-57.359	32.4415	248.873	-41.9996	15.1592	233.255	-63.2685	14.3688	219.72	-58.6286	35.7638	241.913	-8.46559	44.4944	236.834	-9.05537	72.4345	213.733	-0.764297	55.9227	
113	0.941667	185.52	-12.2828	61.7477	172.323	-17.574	36.0266	174.346	-19.5204	8.79274	182.123	-30.4338	-9.46089	207.722	-13.7409	-3.64904	197.252	-37.9466	-14.0182	192.559	-51.9068	16.1228	225.242	-25.4809	-4.43846	213.656	-55.0312	-7.13897	203.645	-58.9144	18.7338	234.681	-34.2776	1.32169	224.67	-60.16	2.09923	211.727	-58.7992	29.825	248.676	-43.3358	13.1129	230.678	-60.1196	11.7928	219.513	-62.4082	32.1934	240.564	-10.0243	44.6855	234.424	-10.8001	75.433	213.576	-0.319088	58.4049	
114	0.95	187.062	-11.1959	59.8731	175.181	-15.339	37.4276	176.598	-18.8259	14.5964	186.433	-28.222	-8.72149	206.304	-12.8364	-4.01441	198.426	-38.734	-12.8252	192.112	-51.5942	13.3396	225.733	-25.0682	-6.68373	212.098	-49.3047	-11.3742	201.686	-58.4402	16.9592	234.727	-32.552	0.530522	222.062	-59.1801	1.02299	212.799	-62.6126	23.9265	251.165	-41.6831	14.577	232.49	-60.942	10.9152	219.565	-63.4086	29.8107	242.341	-10.081	50.1847	235.021	-7.49159	71.6538	213.159	0.421683	59.048	
115	0.958333	186.507	-11.0113	64.3141	172.855	-13.3436	37.3484	173.336	-16.4911	13.9087	185.875	-27.576	-5.49364	209.434	-11.0501	-2.12953	197.83	-37.0096	-13.7642	187.095	-49.0883	13.4788	223.097	-21.7744	-6.04117	212.174	-52.383	-9.93451	198.436	-57.1754	19.3122	238.891	-32.0777	4.44561	222.113	-54.3633	-2.30446	211.913	-62.0168	22.6175	247.674	-40.1638	13.9008	230.943	-57.3957	9.3874	215.853	-60.1007	26.2918	241.233	-10.7056	50.4992	235.207	-9.91179	74.7807	218.244	2.62564	57.6337	
116	0.966667	190.814	-9.20847	61.3783	174.571	-11.6017	36.1379	172.837	-14.4047	11.3949	182.097	-24.7633	-5.36159	208.725	-9.21844	-2.71508	195.396	-35.4414	-14.3894	190.532	-48.9982	12.7345	220.845	-20.3476	-7.40239	211.856	-49.8613	-10.3891	201.188	-58.274	17.1596	235.604	-31.4803	0.28649	222.91	-54.1454	-3.31915	210.693	-60.1239	19.2502	246.328	-37.7206	12.8363	234.522	-55.4777	6.26021	214.276	-57.5445	25.0285	240.616	-8.68104	46.1046	235.32	-7.2636	77.2474	215.494	4.85131	60.2846	
117	0.975	189.881	-9.28047	61.4851	171.794	-10.721	37.7929	176.228	-15.0856	14.1922	181.562	-25.2523	-8.71217	204.227	-7.3161	-5.87783	194.898	-31.4552	-15.1234	188.472	-47.9949	9.39543	220.729	-18.7766	-6.24897	210.221	-42.5468	-14.4842	199.426	-56.9919	15.2245	237.015	-30.2461	1.49057	221.759	-51.3044	-2.9113	206.68	-57.4216	21.8223	247.505	-39.7778	11.9156	233.569	-54.6081	6.16294	212.712	-57.4328	26.037	239.056	-7.43443	46.8945	237.255	-10.6244	76.5711	215.727	4.40455	55.7059	
118	0.983333	185.733	-7.80501	63.9052	174.017	-10.6184	35.2125	171.631	-15.0031	14.3424	181.377	-24.5166	-7.37425	204.049	-5.11679	-2.05442	195.415	-29.6044	-16.3711	186.12	-47.4494	7.3715	219.93	-16.8328	-3.17083	209.694	-42.9189	-13.8653	201.279	-57.7277	15.5813	235.925	-30.9855	-0.1974	219.759	-54.0749	-0.731318	204.908	-56.8521	20.6563	247.13	-36.1149	16.2233	230.839	-57.8051	9.64592	213.721	-58.36	23.7932	239.84	-6.55767	50.0744	236.007	-9.25294	76.1454	215.791	6.09213	56.4894	
119	0.991667	184.396	-8.34662	61.8754	170.461	-10.4533	35.9832	171.854	-14.4921	14.7468	178.741	-24.8569	-5.7777	202.096	-4.28004	-1.35806	196.535	-31.2269	-15.0174	186.482	-47.2138	6.49958	218.221	-17.839	-6.66021	207.228	-44.3428	-12.4683	200.453	-57.1026	14.2997	231.641	-26.7361	2.62936	217.799	-52.8686	-0.846756	204.619	-55.7938	18.6178	247.231	-36.4995	16.9129	227.631	-54.6288	8.74445	210.724	-57.5137	25.2007	235.354	-6.99981	50.5058	231.89	-5.73344	73.594	210.196	5.28373	57.1472	
